<svg xmlns="http://www.w3.org/2000/svg" viewBox="0 0 149 933.19">
  <defs>
    <style>
      .a {
        fill: #22b573;
      }
    </style>
  </defs>
  <title>scroll</title>
  <path class="a" d="M74.5,466.24a74.08,74.08,0,0,0-13.2-42.32,74.44,74.44,0,0,0,0-84.64A74.1,74.1,0,0,0,74.5,297a74.13,74.13,0,0,0-13.2-42.32,74.07,74.07,0,0,0,13.2-42.31A74.08,74.08,0,0,0,61.3,170a74.44,74.44,0,0,0,0-84.64A74.08,74.08,0,0,0,74.5,43.05,74.07,74.07,0,0,0,61.3.74,74.13,74.13,0,0,0,74.5-41.58,74.1,74.1,0,0,0,61.3-83.9a74.1,74.1,0,0,0,13.2-42.32,74.1,74.1,0,0,0-13.2-42.32,74.08,74.08,0,0,0,13.2-42.32,74.07,74.07,0,0,0-13.2-42.31,74.1,74.1,0,0,0,13.2-42.32,74.1,74.1,0,0,0-13.2-42.32,74.1,74.1,0,0,0,13.2-42.32,74.1,74.1,0,0,0-13.2-42.32,74.07,74.07,0,0,0,13.2-42.31c0-.62,0-1.22,0-1.83H-74.45c0,.61,0,1.21,0,1.83a74.07,74.07,0,0,0,13.2,42.31,74.1,74.1,0,0,0-13.2,42.32,74.1,74.1,0,0,0,13.2,42.32,74.1,74.1,0,0,0-13.2,42.32,74.1,74.1,0,0,0,13.2,42.32,74.07,74.07,0,0,0-13.2,42.31,74.08,74.08,0,0,0,13.2,42.32,74.1,74.1,0,0,0-13.2,42.32A74.1,74.1,0,0,0-61.3-83.9,74.1,74.1,0,0,0-74.5-41.58,74.13,74.13,0,0,0-61.3.74,74.07,74.07,0,0,0-74.5,43.05,74.08,74.08,0,0,0-61.3,85.37a74.1,74.1,0,0,0-13.2,42.32A74.1,74.1,0,0,0-61.3,170a74.08,74.08,0,0,0-13.2,42.32,74.07,74.07,0,0,0,13.2,42.31A74.13,74.13,0,0,0-74.5,297a74.1,74.1,0,0,0,13.2,42.32A74.1,74.1,0,0,0-74.5,381.6a74.1,74.1,0,0,0,13.2,42.32,74.08,74.08,0,0,0-13.2,42.32c0,.12,0,.23,0,.35h149C74.49,466.47,74.5,466.36,74.5,466.24Z" transform="translate(74.5 466.59)"/>
</svg>
