<?xml version="1.0" encoding="UTF-8"?>
<svg id="Layer_1" xmlns="http://www.w3.org/2000/svg" version="1.1" viewBox="0 0 31.4 31.4">
  <!-- Generator: Adobe Illustrator 29.1.0, SVG Export Plug-In . SVG Version: 2.1.0 Build 142)  -->
  <defs>
    <style>
      .st0 {
        fill: #c1272d;
      }

      .st1 {
        fill: #006837;
      }
    </style>
  </defs>
  <path class="st0" d="M12.5,14.8c2.6,1.1,5.5,1,8.1-.2,13.3-6.8,14.1,16.7-4,16.7-17.7,0-15-20.7-4.1-16.5Z"/>
  <polygon class="st1" points="24.6 16.3 19.1 15.6 20.7 18.4 16.6 15.9 13.7 17.9 14.1 15.4 10.1 15.7 13 14.4 10.4 13.8 13.5 13.6 12.6 12.6 15 13.1 15.8 12.2 17 13.1 19.5 12.5 18.9 13.6 23.1 13.9 19.9 14.6 24.6 16.3"/>
  <path d="M9.2,3.3l-3,1.5v6.3s-2.7-.3-2.7,1.6,1.2,1.5,2.6,1.5,1.4-.3,1.4-1.2-.2-7.3-.2-7.3l1.9-.7"/>
  <path d="M16.5,0l-3.1,1.6v7.1s-2.9-.3-2.9,1.9,1.2,1.6,2.8,1.6,1.4-.4,1.4-1.3-.2-8.2-.2-8.2l2-.8"/>
  <path d="M4.8,1.8l-2,1v4.5s-1.8-.2-1.8,1.2.8,1,1.7,1,.9-.2.9-.8-.2-5.1-.2-5.1l1.3-.5"/>
</svg>