<svg xmlns="http://www.w3.org/2000/svg" viewBox="0 0 29.34 31.37"><defs><style>.a{fill:#c1272d;}.b{fill:#006837;}</style></defs><path class="a" d="M12.79,14.82a10,10,0,0,0,8.09-.19c13.28-6.82,14.12,16.74-4,16.74C-.8,31.37,1.89,10.71,12.79,14.82Z" transform="translate(-1.35)"/><polygon class="b" points="23.59 16.26 18.11 15.57 19.69 18.37 15.57 15.94 12.73 17.87 13.04 15.4 9.11 15.67 11.98 14.45 9.35 13.75 12.47 13.6 11.57 12.6 13.99 13.13 14.78 12.19 15.99 13.13 18.5 12.53 17.91 13.63 22.12 13.86 18.92 14.58 23.59 16.26"/><path d="M9.51,3.31,6.56,4.76v6.33s-2.73-.27-2.73,1.65c0,1.63,1.15,1.46,2.62,1.46s1.36-.34,1.36-1.2-.22-7.34-.22-7.34L9.51,5" transform="translate(-1.35)"/><path d="M16.85,0,13.72,1.62V8.71s-2.89-.31-2.89,1.85c0,1.81,1.22,1.62,2.78,1.62s1.44-.38,1.44-1.34-.23-8.21-.23-8.21l2-.75" transform="translate(-1.35)"/><path d="M5.12,1.82l-2,1V7.28S1.35,7.09,1.35,8.44c0,1.14.76,1,1.74,1s.9-.24.9-.84-.15-5.14-.15-5.14L5.12,3" transform="translate(-1.35)"/></svg>